<!--?xml version="1.0" standalone="no"?-->
              <svg id="sw-js-blob-svg" viewBox="0 0 100 100" xmlns="http://www.w3.org/2000/svg" version="1.1">
                    <defs> 
                        <linearGradient id="sw-gradient" x1="0" x2="1" y1="1" y2="0">
                            <stop id="stop1" stop-color="rgba(55, 248, 153.203, 0.13)" offset="0%"></stop>
                            <stop id="stop2" stop-color="rgba(68.107, 251, 31, 0.22)" offset="100%"></stop>
                        </linearGradient>
                    </defs>
                <path fill="url(#sw-gradient)" d="M22.6,-26C29.4,-21.3,35,-14.2,36.1,-6.6C37.1,1.1,33.7,9.3,29.6,17.7C25.5,26.1,20.6,34.7,12.9,39.2C5.1,43.7,-5.5,44,-13.6,40C-21.7,35.9,-27.2,27.4,-32.2,18.6C-37.2,9.9,-41.7,0.9,-39.6,-6.2C-37.4,-13.3,-28.7,-18.5,-21,-23C-13.3,-27.6,-6.6,-31.4,0.7,-32.2C7.9,-33,15.9,-30.7,22.6,-26Z" width="100%" height="100%" transform="translate(50 50)" stroke-width="0" style="transition: all 0.3s ease 0s;"></path>
              </svg>