<!--?xml version="1.0" standalone="no"?-->
<svg id="sw-js-blob-svg" viewBox="0 0 100 100" xmlns="http://www.w3.org/2000/svg" version="1.1">
    <defs>
        <linearGradient id="sw-gradient" x1="0" x2="1" y1="1" y2="0">
            <stop id="stop1" stop-color="rgba(248, 117, 55, 0.42)" offset="0%"></stop>
            <stop id="stop2" stop-color="rgba(251, 168, 31, 0.14)" offset="100%"></stop>
        </linearGradient>
    </defs>
    <path fill="url(#sw-gradient)"
        d="M26.7,-30.8C33.2,-26.4,36,-16.6,36.5,-7.4C37,1.8,35.1,10.5,30.9,17.9C26.7,25.3,20.2,31.4,12.5,34.1C4.8,36.8,-4,36,-13.5,33.9C-22.9,31.8,-32.9,28.3,-38.2,21.1C-43.5,13.9,-44.1,3,-41.9,-7.1C-39.7,-17.1,-34.8,-26.4,-27.4,-30.7C-20,-34.9,-10,-34.1,0.1,-34.2C10.1,-34.3,20.3,-35.3,26.7,-30.8Z"
        width="100%" height="100%" transform="translate(50 50)" stroke-width="0" style="transition: all 0.3s ease 0s;">
    </path>
</svg>